# xmcd
# 
# Track frame offsets:
#     150
#     25060
#     47704
#     58745
#     71802
#     89308
#     101580
#     116209
#     129049
#     142481
#     156129
#     170234
#     184629
# 
# Disc length: 2628
# 
# Revision: 1
# Processed by: cddbd v1.5.2PL0 Copyright (c) Steve Scherf et al.
# Submitted via: BonkEnc v1.0.15
# 
DISCID=bd0a420d
DTITLE=Various Artist - 3R - Robert Johnson/Robert Lockwood, Jr./Robert Nighthawk
DYEAR=2004
DGENRE=Blues
TTITLE0=Robert Jr. Lockwood - Every Day I Have The Blues
TTITLE1=Robert Jr. Lockwood and The Aces - Going Down Slow
TTITLE2=Robert Jr. Lockwood - Pearly B
TTITLE3=Robert Jr. Lockwood - Take A Little Walk With Me
TTITLE4=Robert Jr. Lockwood - How Long Blues
TTITLE5=Robert Nightwalk - The Moon Is Rising
TTITLE6=Robert Nightwalk - Crying Won't Help You [alt.Take]
TTITLE7=Robert Lee McCoy - Friars Point Blues
TTITLE8=Scrapper Blackwell - Down South Blues
TTITLE9=Mr. Freddie - Mr.Freddie's Kokomo Blues
TTITLE10=Kokomo Arnold - Sissy Man Blues
TTITLE11=Oscar Woods - Evil Hearted Woman Blues
TTITLE12=Boyd Gilmore - Ramblin' On My Mind
EXTD=blues and soul records No.56
EXTT0=
EXTT1=
EXTT2=
EXTT3=
EXTT4=
EXTT5=
EXTT6=
EXTT7=
EXTT8=
EXTT9=
EXTT10=
EXTT11=
EXTT12=
PLAYORDER=
